<?xml version="1.0" encoding="UTF-8" standalone="no"?>
<!DOCTYPE svg PUBLIC "-//W3C//DTD SVG 1.1//EN" "http://www.w3.org/Graphics/SVG/1.1/DTD/svg11.dtd">
<svg width="100%" height="100%" viewBox="0 0 48 48" version="1.1" xmlns="http://www.w3.org/2000/svg" xmlns:xlink="http://www.w3.org/1999/xlink" xml:space="preserve" xmlns:serif="http://www.serif.com/" style="fill-rule:evenodd;clip-rule:evenodd;stroke-linecap:round;stroke-linejoin:round;">
    <g transform="matrix(2,0,0,2,0,0)">
        <rect x="0" y="0" width="24" height="24" style="fill:rgb(250,245,255);"/>
    </g>
    <g transform="matrix(1,0,0,1,12,12)">
        <path d="M2.25,15C2.25,17.469 4.281,19.5 6.75,19.5L18,19.5C18.001,19.5 18.003,19.5 18.004,19.5C20.061,19.5 21.754,17.807 21.754,15.75C21.754,14.195 20.786,12.794 19.332,12.243C19.444,11.923 19.502,11.587 19.502,11.248C19.502,9.602 18.148,8.248 16.502,8.248C16.187,8.248 15.874,8.298 15.574,8.395C14.973,6.09 12.876,4.469 10.494,4.469C7.614,4.469 5.244,6.839 5.244,9.719C5.244,10.057 5.276,10.394 5.341,10.725C3.501,11.332 2.25,13.062 2.25,15Z" style="fill:none;fill-rule:nonzero;stroke:rgb(126,35,206);stroke-width:1.5px;"/>
    </g>
</svg>
