<?xml version="1.0" encoding="UTF-8" standalone="no"?>
<!DOCTYPE svg PUBLIC "-//W3C//DTD SVG 1.1//EN" "http://www.w3.org/Graphics/SVG/1.1/DTD/svg11.dtd">
<svg width="100%" height="100%" viewBox="0 0 48 48" version="1.1" xmlns="http://www.w3.org/2000/svg" xmlns:xlink="http://www.w3.org/1999/xlink" xml:space="preserve" xmlns:serif="http://www.serif.com/" style="fill-rule:evenodd;clip-rule:evenodd;stroke-linecap:round;stroke-linejoin:round;">
    <g transform="matrix(2,0,0,2,0,0)">
        <rect x="0" y="0" width="24" height="24" style="fill:rgb(240,249,255);"/>
    </g>
    <g transform="matrix(1,0,0,1,24,24)">
        <g transform="matrix(1,0,0,1,-12,-12)">
            <path d="M19.5,14.25L19.5,11.625C19.5,9.774 17.976,8.25 16.125,8.25L14.625,8.25C14.008,8.25 13.5,7.742 13.5,7.125L13.5,5.625C13.5,3.774 11.976,2.25 10.125,2.25L8.25,2.25M8.25,15L15.75,15M8.25,18L12,18M10.5,2.25L5.625,2.25C5.004,2.25 4.5,2.754 4.5,3.375L4.5,20.625C4.5,21.246 5.004,21.75 5.625,21.75L18.375,21.75C18.996,21.75 19.5,21.246 19.5,20.625L19.5,11.25C19.5,6.313 15.437,2.25 10.5,2.25Z" style="fill:none;fill-rule:nonzero;stroke:rgb(6,105,161);stroke-width:1.5px;"/>
        </g>
    </g>
</svg>
